<?xml version="1.0" encoding="utf-8"?>
<?xml-stylesheet type="text/css" href="anima.css"?>
<!-- Generator: Adobe Illustrator 19.0.0, SVG Export Plug-In . SVG Version: 6.00 Build 0)  -->
<svg version="1.1" id="Layer_1" xmlns="http://www.w3.org/2000/svg" xmlns:xlink="http://www.w3.org/1999/xlink" x="0px" y="0px"
	 viewBox="1112.7 -123.2 129.5 589.7" style="enable-background:new 1112.7 -123.2 129.5 589.7;" xml:space="preserve">
<g id="XMLID_29_">
	<rect id="XMLID_32_" x="1118.1" y="-119.8" width="34.9" height="11.6"/>
	<rect id="XMLID_31_" x="1118.1" y="-110.2" width="11.4" height="22.9"/>
	<rect id="XMLID_30_" x="1139.9" y="-110" width="13" height="22.7"/>
</g>
<g id="XMLID_23_">
	<g id="XMLID_25_">
		<rect id="XMLID_28_" x="1201.8" y="-59.2" width="34.9" height="11.6"/>
		<rect id="XMLID_27_" x="1201.8" y="-49.5" width="11.4" height="22.9"/>
		<rect id="XMLID_26_" x="1223.6" y="-49.3" width="13" height="22.7"/>
	</g>
	<rect id="XMLID_24_" x="1201.8" y="-32.9" width="34.9" height="13.3"/>
</g>
<g id="XMLID_17_">
	<g id="XMLID_19_">
		<rect id="XMLID_22_" x="1201" y="295.7" width="21.8" height="7.2"/>
		<rect id="XMLID_21_" x="1201" y="301.7" width="7.1" height="14.3"/>
		<rect id="XMLID_20_" x="1214.6" y="301.9" width="8.2" height="14.2"/>
	</g>
	<rect id="XMLID_18_" x="1201" y="312.1" width="21.8" height="8.3"/>
</g>
<g id="XMLID_13_">
	<rect id="XMLID_15_" x="1123.8" y="52.5" width="44.4" height="11.9"/>
	<rect id="XMLID_14_" x="1139.9" y="60.5" width="12.2" height="17"/>
</g>
<g id="XMLID_9_">
	<rect id="XMLID_11_" x="1179.2" y="140.6" width="14.2" height="17.5"/>
	<rect id="XMLID_10_" x="1179.2" y="155.3" width="45.3" height="10.8"/>
</g>
<g id="XMLID_7_">
	<path id="XMLID_8_" d="M1175.4,226c0,13.2-10.7,23.9-23.9,23.9c-13.2,0-23.8-10.7-23.8-23.9H1175.4z"/>
</g>
<g id="XMLID_4_">
	<rect id="XMLID_6_" x="1135.6" y="383.2" width="32.7" height="15.5"/>
	<rect id="XMLID_5_" x="1156" y="393.2" width="12.3" height="28.5"/>
</g>
<polygon id="XMLID_3_" points="1222.9,463 1207.5,430.7 1238.3,430.7 "/>
</svg>
