<?xml version="1.0" encoding="utf-8"?>
<?xml-stylesheet type="text/css" href="anima.css"?>
<!-- Generator: Adobe Illustrator 19.0.0, SVG Export Plug-In . SVG Version: 6.00 Build 0)  -->
<svg version="1.1" id="Layer_1" xmlns="http://www.w3.org/2000/svg" xmlns:xlink="http://www.w3.org/1999/xlink" x="0px" y="0px"
	 viewBox="-83 -86.2 129.5 864.2" style="enable-background:new -83 -86.2 129.5 864.2;" xml:space="preserve">
<g id="XMLID_29_">
	<rect id="XMLID_32_" x="-80" y="-83.3" width="34.9" height="11.6"/>
	<rect id="XMLID_31_" x="-80" y="-73.7" width="11.4" height="22.9"/>
	<rect id="XMLID_30_" x="-58.2" y="-73.5" width="13" height="22.7"/>
</g>
<g id="XMLID_23_">
	<g id="XMLID_25_">
		<rect id="XMLID_28_" x="3.7" y="-22.7" width="34.9" height="11.6"/>
		<rect id="XMLID_27_" x="3.7" y="-13" width="11.4" height="22.9"/>
		<rect id="XMLID_26_" x="25.5" y="-12.8" width="13" height="22.7"/>
	</g>
	<rect id="XMLID_24_" x="3.7" y="3.6" width="34.9" height="13.3"/>
</g>
<g id="XMLID_17_">
	<g id="XMLID_19_">
		<rect id="XMLID_22_" x="2.9" y="332.2" width="21.8" height="7.2"/>
		<rect id="XMLID_21_" x="2.9" y="338.2" width="7.1" height="14.3"/>
		<rect id="XMLID_20_" x="16.5" y="338.4" width="8.2" height="14.2"/>
	</g>
	<rect id="XMLID_18_" x="2.9" y="348.6" width="21.8" height="8.3"/>
</g>
<g id="XMLID_13_">
	<rect id="XMLID_15_" x="-74.3" y="89" width="44.4" height="11.9"/>
	<rect id="XMLID_14_" x="-58.2" y="97" width="12.2" height="17"/>
</g>
<g id="XMLID_9_">
	<rect id="XMLID_11_" x="-18.9" y="177.1" width="14.2" height="17.5"/>
	<rect id="XMLID_10_" x="-18.9" y="191.8" width="45.3" height="10.8"/>
</g>
<g id="XMLID_7_">
	<path id="XMLID_8_" d="M-22.7,262.5c0,13.2-10.7,23.9-23.9,23.9c-13.2,0-23.8-10.7-23.8-23.9H-22.7z"/>
</g>
<g id="XMLID_4_">
	<rect id="XMLID_6_" x="-62.5" y="419.7" width="32.7" height="15.5"/>
	<rect id="XMLID_5_" x="-42.1" y="429.7" width="12.3" height="28.5"/>
</g>
<polygon id="XMLID_3_" points="24.8,499.5 9.4,467.2 40.2,467.2 "/>
</svg>
